<svg width="431" height="599" viewBox="0 0 431 599" fill="none" xmlns="http://www.w3.org/2000/svg">
<g filter="url(#filter0_i_21_4120)">
<path fill-rule="evenodd" clip-rule="evenodd" d="M158.636 353.465C195.391 373.056 236.608 370.88 268.901 353.463V396.383L269.266 396.373V421.573H158.636V353.465Z" fill="#BB7D52"/>
<path fill-rule="evenodd" clip-rule="evenodd" d="M158.635 389.226C195.39 408.819 236.607 406.642 268.901 389.226V416.595L293.734 415.977L294.042 415.988C294.042 481.959 136.326 491.834 136.326 415.889L136.942 415.861L158.635 415.972V389.226Z" fill="#D08B5B"/>
<path fill-rule="evenodd" clip-rule="evenodd" d="M94.0671 118.098C181.781 62.2489 293.996 82.1094 331.909 118.937C342.87 145.314 343.645 170.755 340.42 198.065C347.825 192.751 356.631 193.967 363.569 198.916C366.38 221.577 373.909 266.405 340.169 268.35C328.553 412.956 115.72 430.955 86.9499 268.823C53.5099 267.669 62.5268 222.364 64.6164 200.608C72.6389 194.504 81.8005 197.576 87.4873 200.307L94.0671 118.098Z" fill="#D08B5B"/>
<path fill-rule="evenodd" clip-rule="evenodd" d="M81.0386 179.339C81.4995 180.604 80.0023 181.87 75.5109 184.172C66.2151 188.815 65.4001 189.78 65.3765 197.053V197.405C65.3765 207.185 66.8737 209.715 73.3225 210.637C79.8871 211.558 84.0336 213.053 85.1857 214.894C85.6453 215.7 86.1068 219.382 86.1068 223.179C86.1068 231.349 88.6396 242.856 91.7497 248.839C100.502 265.87 123.304 274.5 150.943 271.278C164.533 269.551 172.479 266.905 181.116 261.151C194.015 252.522 200.003 241.475 200.924 224.1C201.616 213.513 201.616 213.513 205.071 212.362C209.562 210.752 220.733 210.752 225.34 212.362C228.909 213.628 228.909 213.628 228.909 221.799C228.909 231.234 231.328 242.511 234.552 248.84C243.305 265.87 266.107 274.5 293.631 271.278C307.336 269.552 315.282 266.905 323.92 261.153C336.818 252.523 342.807 241.131 343.958 223.295C344.764 211.558 344.189 212.133 356.857 210.522C363.305 209.717 364.803 207.185 364.803 197.289C364.803 189.464 363.536 187.97 352.826 183.367L346.376 180.604L336.357 177.499L328.987 175.888C324.956 175.082 319.774 174.391 317.585 174.276C315.282 174.276 309.525 172.204 303.767 169.329C294.207 164.61 293.747 164.495 282.461 164.495C269.563 164.495 260.464 167.142 253.093 172.896C250.906 174.621 246.299 176.807 243.074 177.613C239.734 178.419 233.516 180.605 229.255 182.446C218.084 187.164 212.326 186.934 198.046 181.18C191.827 178.65 185.953 176.577 185.148 176.577C184.34 176.577 181.692 174.967 179.274 173.011C171.673 167.027 163.151 164.495 150.022 164.495C138.851 164.495 138.161 164.726 128.257 169.444C121.577 172.666 116.394 174.276 113.285 174.276C110.75 174.391 105.223 175.082 101.077 176.003L81.0386 179.339ZM173.17 194.183C186.988 198.67 191.249 204.768 191.365 220.187C191.48 228.358 191.02 231.005 188.832 235.491C181.232 251.026 159.58 259.772 133.898 257.815C114.206 256.204 104.071 250.681 98.6587 238.484C95.2036 230.544 94.7434 211.558 97.9668 205.689C100.962 200.165 106.721 196.369 116.163 193.837C123.534 191.881 127.565 191.651 145.991 191.881C161.883 192.226 168.794 192.802 173.17 194.183ZM315.972 194.183C329.793 198.67 334.053 204.768 334.169 220.187C334.284 228.358 333.823 231.005 331.635 235.491C324.034 251.026 302.383 259.772 276.701 257.815C257.009 256.204 246.874 250.681 241.461 238.484C238.006 230.544 237.546 211.558 240.77 205.689C243.765 200.165 249.523 196.369 258.966 193.837C266.337 191.881 270.367 191.651 288.793 191.881C304.686 192.226 311.596 192.802 315.972 194.183Z" fill="#A66F49"/>
<path fill-rule="evenodd" clip-rule="evenodd" d="M184.225 5.62252L176.97 10.3407L173.284 6.77327C167.526 1.1353 164.762 2.17091 160.386 11.4914C157.737 17.2445 154.398 17.9354 148.64 14.1377C146.336 12.527 143.457 11.146 142.306 11.146C139.772 11.146 137.353 15.0582 136.317 20.2362C135.511 24.4938 132.747 28.406 130.444 28.406C129.638 28.406 126.643 27.3704 123.765 26.1045C119.388 24.1484 118.006 24.0333 115.588 25.0689C112.824 26.3348 112.593 27.025 112.593 34.6197C112.593 40.1432 111.787 44.4008 110.29 47.6227C108.102 52.4554 107.987 52.5705 102.574 52.5705C93.5912 52.5705 89.3302 57.0577 93.7064 62.0062C96.0101 64.4222 94.5123 66.954 90.0215 67.9896C81.7293 70.0608 79.3111 75.354 83.8025 80.992C86.912 85.0193 86.7968 85.595 81.8445 87.8965C76.6624 90.4276 75.8566 93.3049 79.1958 96.8716C81.7293 99.6337 81.7293 99.7482 80.3473 114.938C78.9661 129.666 79.4263 170.746 81.0386 175.003C81.4995 176.269 80.0023 177.535 75.5109 179.836C66.0672 184.554 65.3765 185.474 65.3765 193.069C65.3765 202.85 66.8737 205.381 73.3231 206.302C79.8871 207.222 84.0329 208.718 85.1851 210.559C85.6453 211.365 86.1061 215.047 86.1061 218.844C86.1061 227.014 88.6396 238.521 91.7491 244.504C100.502 261.535 123.304 270.164 150.944 266.943C164.533 265.217 172.479 262.57 181.116 256.817C194.015 248.187 200.003 237.14 200.925 219.765C201.616 209.178 201.616 209.178 205.071 208.028C209.562 206.417 220.733 206.417 225.339 208.028C228.91 209.294 228.91 209.294 228.91 217.464C228.91 226.9 231.328 238.176 234.553 244.505C243.305 261.535 266.107 270.165 293.631 266.944C307.336 265.217 315.282 262.571 323.92 256.818C336.818 248.188 342.807 236.796 343.958 218.96C344.764 207.223 344.189 207.799 356.857 206.187C363.306 205.382 364.803 202.85 364.803 192.955C364.803 185.13 363.536 183.634 352.826 179.032L346.377 176.27V164.763C346.261 145.086 343.498 131.163 338.66 126.675C337.048 125.18 333.478 122.878 330.599 121.497C326.108 119.311 325.187 119.196 323.805 120.692C322.423 122.073 322.768 123.339 326.223 130.243C330.484 138.758 334.284 153.141 335.551 165.569L336.357 173.164L328.987 171.552C324.956 170.747 319.774 170.057 317.585 169.942C315.282 169.942 309.524 167.87 303.766 164.994C294.207 160.276 293.747 160.16 282.461 160.16C269.562 160.16 260.464 162.807 253.094 168.56C250.906 170.287 246.299 172.473 243.075 173.279C239.735 174.084 233.516 176.27 229.255 178.111C218.084 182.829 212.326 182.599 198.045 176.845C191.827 174.314 185.953 172.243 185.147 172.243C184.341 172.243 181.692 170.632 179.274 168.676C171.673 162.692 163.151 160.16 150.022 160.16C138.851 160.16 138.16 160.391 128.256 165.108C121.576 168.33 116.394 169.942 113.285 169.942C110.751 170.057 105.223 170.747 101.078 171.667C89.3309 174.199 90.2519 175.695 91.173 156.363C91.8643 139.794 94.0521 125.756 96.5862 120.922C99.4653 115.514 122.267 103.892 144.84 96.2979C172.825 86.9773 204.264 83.4099 239.735 85.8266C270.138 87.7827 278.2 90.3138 311.828 108.38C323.574 114.709 334.515 119.772 337.048 120.117C341.195 120.692 341.54 120.462 342.806 117.009C345.571 109.07 343.382 89.0479 338.776 79.9577C335.321 73.2841 335.091 70.7523 337.048 63.8484C338.43 59.0151 338.43 57.9795 336.703 55.4484C335.091 53.0317 333.939 52.5718 329.333 52.5718C326.338 52.687 321.732 53.1469 319.083 53.6074C314.361 54.5279 314.246 54.5279 314.822 51.5362C317.125 40.2596 314.361 37.7278 303.19 40.6044C299.62 41.5249 296.28 42.1006 296.05 41.7551C295.705 41.4104 296.05 37.9581 296.856 34.1611C298.237 27.9474 298.123 26.9118 296.511 25.1853C294.783 23.5747 293.747 23.5747 287.067 24.8406C276.357 27.0269 272.326 25.9913 268.41 20.0073C264.38 14.139 260.694 12.0678 256.894 13.5633C254.821 14.3686 252.633 14.0239 248.487 12.1829C244.11 10.342 241.577 9.88142 237.662 10.4565C233.631 11.1473 231.443 10.6867 227.642 8.73066C223.727 6.77458 221.539 6.42916 216.817 7.00421C211.75 7.57991 209.907 7.11935 204.034 4.24279C200.349 2.40184 195.973 0.905668 194.36 0.790527C192.748 0.790527 188.256 2.97689 184.226 5.62382L184.225 5.62252ZM173.169 189.847C186.989 194.335 191.25 200.434 191.365 215.853C191.481 224.022 191.02 226.669 188.832 231.157C181.231 246.691 159.58 255.436 133.898 253.48C114.206 251.869 104.071 246.346 98.6587 234.148C95.2036 226.209 94.7427 207.222 97.9674 201.354C100.962 195.831 106.72 192.034 116.163 189.502C123.534 187.546 127.565 187.315 145.991 187.546C161.883 187.891 168.793 188.466 173.169 189.847ZM315.972 189.847C329.792 194.335 334.053 200.434 334.168 215.853C334.284 224.022 333.823 226.669 331.635 231.157C324.034 246.691 302.383 255.436 276.701 253.48C257.009 251.869 246.874 246.346 241.462 234.148C238.007 226.209 237.546 207.222 240.77 201.354C243.765 195.831 249.523 192.034 258.966 189.502C266.337 187.546 270.368 187.315 288.794 187.546C304.686 187.891 311.596 188.466 315.972 189.847Z" fill="#2C1B18"/>
<path fill-rule="evenodd" clip-rule="evenodd" d="M136.087 203.771C129.983 206.647 122.957 213.897 122.957 217.349C122.957 219.995 124.8 219.995 128.37 217.119C137.698 209.754 157.507 209.754 167.641 217.003C169.599 218.269 171.672 219.419 172.363 219.419C174.781 219.419 173.63 215.277 169.945 210.904C165.108 204.921 156.471 201.009 148.293 201.009C144.032 201.009 140.002 201.929 136.087 203.77V203.771Z" fill="#533824"/>
<path fill-rule="evenodd" clip-rule="evenodd" d="M269.677 203.771C263.573 206.647 256.548 213.897 256.548 217.349C256.548 219.995 258.391 219.995 261.961 217.119C271.289 209.754 291.097 209.754 301.232 217.003C303.189 218.269 305.262 219.419 305.954 219.419C308.372 219.419 307.22 215.277 303.535 210.904C298.698 204.921 290.061 201.009 281.884 201.009C277.623 201.009 273.593 201.929 269.677 203.77L269.677 203.771Z" fill="#533824"/>
<path fill-rule="evenodd" clip-rule="evenodd" d="M188.256 258.773C189.523 263.721 193.208 267.634 199.657 270.741C204.84 273.272 207.488 273.848 215.089 273.848C222.69 273.848 225.339 273.272 230.521 270.741C236.97 267.634 240.655 263.722 241.922 258.773L242.498 256.242H215.089H187.68L188.256 258.773Z" fill="#AF754C"/>
<path fill-rule="evenodd" clip-rule="evenodd" d="M81.0386 175.003C81.4995 176.269 80.0023 177.535 75.5109 179.836C66.2151 184.479 65.4001 185.446 65.3765 192.718V193.07C65.3765 202.85 66.8737 205.381 73.3225 206.302C79.8871 207.222 84.0336 208.718 85.1857 210.559C85.6453 211.365 86.1068 215.047 86.1068 218.844C86.1068 227.014 88.6396 238.522 91.7497 244.504C100.502 261.535 123.304 270.164 150.943 266.943C164.533 265.216 172.479 262.57 181.116 256.817C194.015 248.187 200.003 237.141 200.924 219.765C201.616 209.178 201.616 209.178 205.071 208.028C209.562 206.418 220.733 206.418 225.34 208.028C228.909 209.293 228.909 209.293 228.909 217.464C228.909 226.899 231.328 238.176 234.552 244.506C243.305 261.535 266.107 270.164 293.631 266.943C307.336 265.217 315.282 262.57 323.92 256.818C336.818 248.188 342.807 236.796 343.958 218.96C344.764 207.222 344.189 207.799 356.857 206.187C363.305 205.382 364.803 202.85 364.803 192.954C364.803 185.13 363.536 183.635 352.826 179.032L346.376 176.269L336.357 173.164L328.987 171.552C324.956 170.747 319.774 170.056 317.585 169.941C315.282 169.941 309.525 167.87 303.767 164.994C294.207 160.276 293.747 160.16 282.461 160.16C269.563 160.16 260.464 162.807 253.093 168.561C250.906 170.286 246.299 172.473 243.074 173.278C239.734 174.084 233.516 176.27 229.255 178.111C218.084 182.829 212.326 182.599 198.046 176.845C191.827 174.315 185.953 172.242 185.148 172.242C184.34 172.242 181.692 170.632 179.274 168.676C171.673 162.692 163.151 160.16 150.022 160.16C138.851 160.16 138.161 160.391 128.257 165.109C121.577 168.331 116.394 169.941 113.285 169.941C110.75 170.056 105.223 170.747 101.077 171.667L81.0386 175.003ZM173.17 189.848C186.988 194.336 191.249 200.434 191.365 215.853C191.48 224.023 191.02 226.67 188.832 231.156C181.232 246.691 159.58 255.437 133.898 253.479C114.206 251.869 104.071 246.346 98.6587 234.149C95.2036 226.209 94.7434 207.222 97.9668 201.354C100.962 195.83 106.721 192.034 116.163 189.502C123.534 187.546 127.565 187.316 145.991 187.546C161.883 187.89 168.794 188.467 173.17 189.848ZM315.972 189.848C329.793 194.336 334.053 200.434 334.169 215.853C334.284 224.023 333.823 226.67 331.635 231.156C324.034 246.691 302.383 255.437 276.701 253.479C257.009 251.869 246.874 246.346 241.461 234.149C238.006 226.209 237.546 207.222 240.77 201.354C243.765 195.83 249.523 192.034 258.966 189.502C266.337 187.546 270.367 187.316 288.793 187.546C304.686 187.89 311.596 188.467 315.972 189.848Z" fill="#090E16"/>
<path fill-rule="evenodd" clip-rule="evenodd" d="M182.958 305.03C184.455 314.581 191.711 324.362 200.694 328.965C207.258 332.417 219.35 333.107 226.26 330.461C236.625 326.434 245.608 315.617 247.22 305.03H182.958Z" fill="#3E291B"/>
<path fill-rule="evenodd" clip-rule="evenodd" d="M181.974 281.045C180.22 281.682 175.915 283.752 172.407 285.744C168.899 287.655 164.913 289.727 163.558 290.285C160.768 291.399 152.557 291.718 149.926 290.842C148.411 290.363 148.092 290.523 148.092 292.036C148.092 294.506 153.275 299.126 158.935 301.835C166.269 305.339 175.835 304.622 187.794 299.604C192.41 298.244 199.087 294.603 204.455 292.754C216.283 288.575 222.325 290.973 232.996 295.542L242.323 299.604C254.282 304.622 263.848 305.339 271.183 301.835C276.923 299.126 282.264 294.267 281.866 292.196C281.706 291.399 280.988 290.922 280.351 291.081C279.713 291.24 276.763 291.32 273.734 291.32C268.95 291.24 267.515 290.842 261.776 287.895C246.23 279.77 248.462 280.407 236.982 280.407C227.814 280.407 225.98 280.725 220.879 282.558L215.058 284.628L209.318 282.558C202.303 280.088 187.395 279.292 181.974 281.045Z" fill="#2C1B18" fill-opacity="0.301961"/>
<path d="M255.721 527.002L263.116 520.994C264.83 519.602 267.349 519.861 268.742 521.574C270.136 523.286 269.876 525.802 268.162 527.195L264.583 530.102L290.568 551.978C292.281 553.37 292.541 555.887 291.148 557.599C290.357 558.57 289.205 559.074 288.043 559.074C287.156 559.074 286.263 558.781 285.522 558.179L255.721 533.202C254.787 532.443 254.245 531.305 254.245 530.102C254.245 528.899 254.787 527.76 255.721 527.002Z" fill="#7B4AE2"/>
<path d="M288.56 490.293C290.683 490.31 292.391 492.043 292.374 494.165L292.044 555.263C292.027 557.384 290.291 559.091 288.168 559.074C287.63 559.07 287.12 558.955 286.656 558.752C285.291 558.154 284.341 556.786 284.354 555.201L284.685 494.104C284.702 491.982 286.437 490.276 288.56 490.293Z" fill="#7B4AE2"/>
<path d="M305.437 532.321L308.169 530.102L298.441 522.198C296.727 520.806 296.468 518.29 297.861 516.577C299.254 514.865 301.773 514.606 303.487 515.998L317.03 527.002C317.965 527.76 318.507 528.899 318.507 530.102C318.507 531.305 317.965 532.443 317.03 533.202L310.483 538.522C309.742 539.123 308.849 539.417 307.963 539.417C306.8 539.417 305.648 538.913 304.857 537.942C303.464 536.23 303.724 533.713 305.437 532.321Z" fill="#C83267"/>
<path fill-rule="evenodd" clip-rule="evenodd" d="M135.624 415.93C101.652 419.236 70.7889 431.889 45.107 452.977C23.0079 471.046 16.8425 485.407 0.663269 505.86C33.6286 540.033 77.9578 568.988 126.298 584.98C158.543 595.58 180.54 599 215.088 599C249.639 599 271.634 595.58 303.881 584.98C352.649 569.396 393.728 543.859 430.759 507.205C405.396 474.495 394.957 453.057 354.091 432.914C336.931 424.365 316.778 418.21 301.346 416.614L294.078 415.959L293.733 415.952L292.939 421.402C289.485 447.392 256.895 466.542 216.241 466.542C175.589 466.542 143.573 447.619 139.426 421.288C138.621 416.045 138.274 415.588 135.626 415.93H135.624Z" fill="#090E16"/>
<path fill-rule="evenodd" clip-rule="evenodd" d="M156.698 369.613L156.218 369.462C154.905 369.049 161.355 366.106 163.641 365.013C170.36 361.803 179.123 362.459 190.077 367.056C194.306 368.302 200.422 371.637 205.34 373.331C216.174 377.16 221.709 374.962 231.484 370.778L240.029 367.056C250.983 362.459 259.746 361.803 266.465 365.013C268.718 366.077 270.943 367.457 272.637 368.932L273.147 369.376C253.539 384.321 190.686 391.75 156.698 369.613Z" fill="#2C1B18" fill-opacity="0.501961"/>
<path d="M282.489 509.392L286.339 506.264C287.231 505.539 288.542 505.675 289.267 506.566C289.993 507.457 289.858 508.768 288.965 509.492L287.103 511.006L300.628 522.396C301.521 523.12 301.656 524.431 300.93 525.322C300.519 525.828 299.919 526.09 299.314 526.09C298.853 526.09 298.388 525.938 298.002 525.624L282.489 512.62C282.003 512.225 281.721 511.632 281.721 511.006C281.721 510.38 282.003 509.787 282.489 509.392Z" fill="white"/>
<path d="M299.584 490.28C300.689 490.289 301.578 491.191 301.569 492.296L301.397 524.106C301.388 525.211 300.485 526.099 299.379 526.09C299.099 526.088 298.834 526.028 298.592 525.923C297.882 525.611 297.387 524.899 297.394 524.074L297.566 492.264C297.575 491.16 298.478 490.271 299.584 490.28Z" fill="white"/>
<path d="M308.369 512.161L309.791 511.006L304.727 506.891C303.835 506.167 303.7 504.856 304.425 503.965C305.15 503.073 306.461 502.938 307.353 503.663L314.404 509.392C314.89 509.787 315.172 510.38 315.172 511.006C315.172 511.632 314.89 512.225 314.404 512.62L310.996 515.39C310.609 515.703 310.145 515.856 309.684 515.856C309.078 515.856 308.478 515.594 308.067 515.088C307.342 514.196 307.477 512.886 308.369 512.161Z" fill="#7B4AE2"/>
</g>
<defs>
<filter id="filter0_i_21_4120" x="0.663269" y="0.790527" width="430.095" height="602.209" filterUnits="userSpaceOnUse" color-interpolation-filters="sRGB">
<feFlood flood-opacity="0" result="BackgroundImageFix"/>
<feBlend mode="normal" in="SourceGraphic" in2="BackgroundImageFix" result="shape"/>
<feColorMatrix in="SourceAlpha" type="matrix" values="0 0 0 0 0 0 0 0 0 0 0 0 0 0 0 0 0 0 127 0" result="hardAlpha"/>
<feOffset dy="4"/>
<feGaussianBlur stdDeviation="2"/>
<feComposite in2="hardAlpha" operator="arithmetic" k2="-1" k3="1"/>
<feColorMatrix type="matrix" values="0 0 0 0 0 0 0 0 0 0 0 0 0 0 0 0 0 0 0.25 0"/>
<feBlend mode="normal" in2="shape" result="effect1_innerShadow_21_4120"/>
</filter>
</defs>
</svg>
