<svg width="172" height="172" viewBox="0 0 172 172" fill="none" xmlns="http://www.w3.org/2000/svg">
<rect width="172" height="172" fill="#1E1E1E"/>
<g id="Desktop" clip-path="url(#clip0_0_1)">
<rect width="1920" height="8320" transform="translate(-1124 -402)" fill="#090E16"/>
<g id="AvatarAndIcons">
<path id="Vector" d="M81.6672 60.7128C81.6672 -81.5925 -33.7688 -196.954 -176.166 -196.954C-318.564 -196.954 -434 -81.5925 -434 60.7128C-434 203.018 -318.564 318.379 -176.166 318.379C-33.7688 318.379 81.6672 203.018 81.6672 60.7128Z" fill="#7B4AE2" fill-opacity="0.2"/>
<g id="Icons">
<g id="Group 28">
<g id="Ellipse 4" filter="url(#filter0_d_0_1)">
<circle cx="86.1435" cy="82.1102" r="35.8102" fill="#090E16"/>
</g>
<g id="TypeScript" clip-path="url(#clip1_0_1)">
<path id="Subtract" fill-rule="evenodd" clip-rule="evenodd" d="M101.251 64.2051H71.0361C69.491 64.2051 68.2384 65.4577 68.2384 67.0028V97.2177C68.2384 98.7628 69.491 100.015 71.0361 100.015H101.251C102.796 100.015 104.049 98.7628 104.049 97.2177V67.0028C104.049 65.4577 102.796 64.2051 101.251 64.2051ZM89.2934 96.1119V92.2483C89.9942 92.836 90.7555 93.2766 91.5773 93.5704C92.399 93.8642 93.2286 94.0111 94.0664 94.0111C94.5578 94.0111 94.9868 93.9668 95.3533 93.8782C95.7198 93.7897 96.026 93.667 96.2717 93.5101C96.5173 93.3531 96.7007 93.1679 96.8214 92.9547C96.9423 92.7414 97.0027 92.5099 97.0027 92.2605C97.0027 91.9224 96.906 91.6205 96.7127 91.3549C96.5194 91.0892 96.2556 90.8437 95.9212 90.6184C95.5869 90.393 95.1902 90.1758 94.731 89.9665C94.2719 89.7571 93.7764 89.5439 93.2447 89.3266C91.8913 88.7631 90.8825 88.0749 90.2179 87.262C89.5532 86.449 89.221 85.467 89.221 84.3161C89.221 83.4145 89.4022 82.6398 89.7647 81.9919C90.1273 81.344 90.6206 80.8107 91.2449 80.392C91.8692 79.9735 92.5923 79.6656 93.414 79.4685C94.2356 79.2713 95.1056 79.1727 96.0239 79.1727C96.9262 79.1727 97.7257 79.227 98.4225 79.3356C99.1193 79.4443 99.7618 79.6114 100.35 79.8367V83.4467C100.06 83.2455 99.7436 83.0684 99.4013 82.9156C99.0588 82.7625 98.7065 82.6358 98.344 82.5352C97.9815 82.4345 97.621 82.3601 97.2624 82.3118C96.9041 82.2636 96.5637 82.2394 96.2414 82.2394C95.7984 82.2394 95.3956 82.2816 95.0331 82.3661C94.6705 82.4507 94.3645 82.5693 94.1148 82.7224C93.8651 82.8753 93.6716 83.0584 93.5347 83.2717C93.3977 83.485 93.3293 83.7244 93.3293 83.99C93.3293 84.2798 93.4059 84.5393 93.5589 84.7687C93.7119 84.9981 93.9294 85.2155 94.2114 85.4207C94.4933 85.6261 94.8357 85.8272 95.2385 86.0245C95.6413 86.2217 96.0964 86.4248 96.6039 86.6342C97.2967 86.9239 97.9191 87.2318 98.4709 87.5577C99.0226 87.8838 99.496 88.252 99.8906 88.6625C100.285 89.073 100.587 89.5418 100.797 90.0691C101.006 90.5963 101.111 91.2101 101.111 91.9104C101.111 92.8762 100.928 93.6872 100.561 94.3431C100.195 94.9991 99.6973 95.5304 99.0689 95.9369C98.4407 96.3433 97.7095 96.6351 96.8758 96.8122C96.0421 96.9892 95.162 97.0778 94.2356 97.0778C93.285 97.0778 92.3808 96.9974 91.5229 96.8364C90.665 96.6753 89.9218 96.4339 89.2934 96.1119ZM87.8221 82.6337H82.8537V96.798H78.9178V82.6337H73.9736V79.4525H87.8221V82.6337Z" fill="#7B4AE2" fill-opacity="0.5"/>
</g>
</g>
</g>
<g id="Group 33">
<g id="Ellipse 5" filter="url(#filter1_f_0_1)">
<circle cx="-174.376" cy="56.1478" r="255.148" fill="#7B4AE2" fill-opacity="0.2"/>
</g>
<g id="Group 32" filter="url(#filter2_i_0_1)">
</g>
</g>
</g>
</g>
<defs>
<filter id="filter0_d_0_1" x="0.333252" y="0.300018" width="171.62" height="171.62" filterUnits="userSpaceOnUse" color-interpolation-filters="sRGB">
<feFlood flood-opacity="0" result="BackgroundImageFix"/>
<feColorMatrix in="SourceAlpha" type="matrix" values="0 0 0 0 0 0 0 0 0 0 0 0 0 0 0 0 0 0 127 0" result="hardAlpha"/>
<feOffset dy="4"/>
<feGaussianBlur stdDeviation="25"/>
<feComposite in2="hardAlpha" operator="out"/>
<feColorMatrix type="matrix" values="0 0 0 0 0 0 0 0 0 0 0 0 0 0 0 0 0 0 0.5 0"/>
<feBlend mode="normal" in2="BackgroundImageFix" result="effect1_dropShadow_0_1"/>
<feBlend mode="normal" in="SourceGraphic" in2="effect1_dropShadow_0_1" result="shape"/>
</filter>
<filter id="filter1_f_0_1" x="-479.524" y="-249" width="610.296" height="610.296" filterUnits="userSpaceOnUse" color-interpolation-filters="sRGB">
<feFlood flood-opacity="0" result="BackgroundImageFix"/>
<feBlend mode="normal" in="SourceGraphic" in2="BackgroundImageFix" result="shape"/>
<feGaussianBlur stdDeviation="25" result="effect1_foregroundBlur_0_1"/>
</filter>
<filter id="filter2_i_0_1" x="-379.337" y="-197.209" width="430.095" height="602.209" filterUnits="userSpaceOnUse" color-interpolation-filters="sRGB">
<feFlood flood-opacity="0" result="BackgroundImageFix"/>
<feBlend mode="normal" in="SourceGraphic" in2="BackgroundImageFix" result="shape"/>
<feColorMatrix in="SourceAlpha" type="matrix" values="0 0 0 0 0 0 0 0 0 0 0 0 0 0 0 0 0 0 127 0" result="hardAlpha"/>
<feOffset dy="4"/>
<feGaussianBlur stdDeviation="2"/>
<feComposite in2="hardAlpha" operator="arithmetic" k2="-1" k3="1"/>
<feColorMatrix type="matrix" values="0 0 0 0 0 0 0 0 0 0 0 0 0 0 0 0 0 0 0.25 0"/>
<feBlend mode="normal" in2="shape" result="effect1_innerShadow_0_1"/>
</filter>
<clipPath id="clip0_0_1">
<rect width="1920" height="8320" fill="white" transform="translate(-1124 -402)"/>
</clipPath>
<clipPath id="clip1_0_1">
<rect width="35.8102" height="35.8102" fill="white" transform="translate(68.2384 64.2051)"/>
</clipPath>
</defs>
</svg>
