<svg width="739" height="385" viewBox="0 0 739 385" fill="none" xmlns="http://www.w3.org/2000/svg">
<ellipse cx="111.5" cy="377" rx="8.5" ry="8" fill="#111111"/>
<ellipse cx="83.5" cy="302" rx="4.5" ry="4" fill="#111111"/>
<ellipse cx="19" cy="308.5" rx="2" ry="2.5" fill="#111111"/>
<ellipse cx="6.5" cy="354" rx="6.5" ry="6" fill="#111111"/>
<circle cx="61" cy="348" r="4" fill="#111111"/>
<circle cx="6" cy="6" r="6" transform="matrix(0.269686 0.962948 0.968676 -0.248329 569 50.9799)" fill="black"/>
<circle cx="7.5" cy="7.5" r="7.5" transform="matrix(-1 0 0 1 578 6.7066)" fill="black"/>
<path d="M533.524 43.3338C535.129 42.9223 536.068 41.2954 535.621 39.7C535.174 38.1045 533.511 37.1447 531.906 37.5561C530.301 37.9675 529.362 39.5945 529.809 41.1899C530.256 42.7854 531.919 43.7452 533.524 43.3338Z" fill="black"/>
<circle cx="4.5" cy="4.5" r="4.5" transform="matrix(0.269686 0.962948 0.968676 -0.248329 517 2.23495)" fill="black"/>
<circle cx="6" cy="6" r="6" transform="matrix(-0.269686 0.962948 -0.968676 -0.248329 91.8604 80.9799)" fill="black"/>
<circle cx="91.5" cy="33.5" r="7.5" fill="black"/>
<path d="M107.906 63.5227C106.301 63.1112 105.362 61.4843 105.809 59.8888C106.256 58.2934 107.919 57.3335 109.524 57.745C111.129 58.1564 112.068 59.7833 111.621 61.3788C111.174 62.9743 109.511 63.9341 107.906 63.5227Z" fill="black"/>
<circle cx="4.5" cy="4.5" r="4.5" transform="matrix(-0.269686 0.962948 -0.968676 -0.248329 144.145 26.235)" fill="black"/>
<ellipse cx="8.5" cy="8" rx="8.5" ry="8" transform="matrix(-1 0 0 1 636 352)" fill="#111111"/>
<ellipse cx="4.5" cy="4" rx="4.5" ry="4" transform="matrix(-1 0 0 1 660 281)" fill="#111111"/>
<ellipse cx="2" cy="2.5" rx="2" ry="2.5" transform="matrix(-1 0 0 1 722 289)" fill="#111111"/>
<ellipse cx="6.5" cy="6" rx="6.5" ry="6" transform="matrix(-1 0 0 1 739 331)" fill="#111111"/>
<circle cx="4" cy="4" r="4" transform="matrix(-1 0 0 1 682 327)" fill="#111111"/>
<path fill-rule="evenodd" clip-rule="evenodd" d="M240.191 183.232C240.788 183.232 241.273 183.671 241.273 184.213C241.273 184.735 240.822 185.162 240.255 185.191L240.191 185.193H193.73C166.87 185.193 147.796 204.567 150.697 228.681L150.792 229.413L159.587 293.002C159.661 293.539 159.241 294.029 158.648 294.097C158.077 294.162 157.554 293.81 157.451 293.303L157.441 293.246L148.646 229.657C145.139 204.291 164.895 183.649 192.879 183.239L193.73 183.232H240.191Z" fill="#111111"/>
<path fill-rule="evenodd" clip-rule="evenodd" d="M272.078 162.722C272.533 162.66 272.982 162.867 273.195 163.238L274.456 165.426C274.502 165.506 274.536 165.591 274.557 165.679L274.569 165.746L276.083 175.614C276.118 175.839 276.065 176.068 275.935 176.26L275.893 176.317L270.126 183.669C269.78 184.111 269.105 184.214 268.618 183.9C268.15 183.598 268.027 183.021 268.326 182.585L268.364 182.533L273.882 175.498L272.453 166.184L271.635 164.766L271.52 164.782C257.47 166.774 248.678 170.409 244.649 175.402L244.526 175.557C241.024 180.03 241.292 185.648 244.945 192.27C245.265 192.849 244.887 193.546 244.185 193.67C220.448 197.873 201.131 215.919 189.607 241.828C179.223 265.172 176.888 291.749 183.612 308.806L184.704 311.602C187.015 317.493 188.417 320.353 190.503 322.896C193.184 326.163 196.508 327.82 201.094 327.859C201.692 327.864 202.171 328.307 202.166 328.848C202.16 329.389 201.671 329.824 201.074 329.819C195.783 329.774 191.838 327.808 188.768 324.066L188.594 323.851C186.493 321.231 185.068 318.341 182.854 312.737L181.62 309.58C181.605 309.542 181.59 309.503 181.575 309.465C174.656 291.912 177.033 264.852 187.601 241.095C199.139 215.156 218.421 196.839 242.302 192.024L242.407 192.003L242.334 191.858C239.049 185.249 238.973 179.39 242.643 174.577L242.762 174.422C247.226 168.721 256.843 164.776 272.078 162.722Z" fill="#111111"/>
<path fill-rule="evenodd" clip-rule="evenodd" d="M285.68 209.535C285.68 209.469 285.68 209.404 285.68 209.339C287.374 209.502 289.032 209.502 290.654 208.26C294.619 205.156 296.025 204.208 296.025 204.208C296.025 204.208 296.386 204.601 297.034 205.254C297.827 203.947 298.62 202.575 299.449 201.202C282.328 189.177 269.244 183.099 269.244 183.099L268.271 182.479L261.999 189.439C261.999 189.439 272.236 195.811 285.68 209.535Z" fill="#111111"/>
<path fill-rule="evenodd" clip-rule="evenodd" d="M368.439 322.334C368.439 322.334 341.045 255.543 344.541 234.859C346.451 223.553 343.46 210.776 339.351 200.875L331.493 201.332L322.085 221.461C322.698 221.592 323.311 221.723 323.923 221.788C323.923 221.788 323.563 223.912 322.662 228.748C322.049 231.983 323.094 232.343 323.887 234.597C324.933 236.1 325.726 237.8 324.861 240.446C324.572 241.296 323.887 249.4 322.338 260.379C325.221 265.901 327.961 271.783 330.556 278.057C347.172 318.217 345.442 322.595 345.442 322.595L368.439 322.334Z" fill="#111111"/>
<path fill-rule="evenodd" clip-rule="evenodd" d="M333.896 164.975C334.09 164.463 334.705 164.19 335.27 164.366C346.223 167.767 353.868 173.139 358.856 180.153C362.472 185.236 364.396 190.527 365.672 197.213L365.724 197.49L366.454 197.995C401.351 222.223 426.287 249.542 442.856 278.206L443.361 279.084C449.59 289.982 454.283 300.53 457.655 310.499C460.025 317.508 461.497 323.467 462.289 328.169C462.379 328.704 461.974 329.204 461.384 329.286C460.793 329.368 460.242 329 460.151 328.465L460.067 327.975C459.272 323.442 457.843 317.746 455.587 311.074C452.253 301.215 447.608 290.777 441.44 279.986C424.852 250.963 399.631 223.294 364.074 198.816C363.854 198.664 363.706 198.442 363.661 198.195C362.431 191.435 360.584 186.2 357.039 181.215C352.316 174.575 345.065 169.48 334.569 166.22C334.004 166.045 333.703 165.488 333.896 164.975Z" fill="#111111"/>
<path fill-rule="evenodd" clip-rule="evenodd" d="M351.12 230.057C351.891 230.083 352.499 230.654 352.508 231.346L352.507 231.431L352.499 231.647C352.493 231.845 352.487 232.079 352.481 232.346C352.319 239.707 352.727 248.616 354.181 257.139C354.84 260.999 355.686 264.526 356.735 267.646C356.967 268.336 356.538 269.066 355.776 269.277C355.015 269.488 354.209 269.098 353.977 268.408C352.884 265.16 352.01 261.513 351.331 257.538C349.875 249.004 349.448 240.134 349.589 232.72L349.61 231.79L349.626 231.316C349.654 230.616 350.284 230.065 351.048 230.057L351.12 230.057Z" fill="#111111"/>
<path fill-rule="evenodd" clip-rule="evenodd" d="M363.647 197.773C363.899 199.179 364.116 200.453 364.296 201.564C366.494 214.569 361.773 223.229 358.637 229.208C367.035 223.817 372.73 213.556 375.578 205.747C372.154 203.263 367.432 200.322 363.647 197.773Z" fill="#111111"/>
<path fill-rule="evenodd" clip-rule="evenodd" d="M244.842 192.119C238.967 193.197 229.307 195.877 222.314 200.223C227.18 202.641 251.294 215.712 270.975 223.554C271.119 223.489 272.2 221.855 272.741 221.201C261.855 213.392 250.393 202.216 244.842 192.119Z" fill="#111111"/>
<path fill-rule="evenodd" clip-rule="evenodd" d="M260.417 139.121C260.993 138.978 261.587 139.287 261.744 139.809C261.895 140.313 261.585 140.832 261.046 140.996L260.857 141.046C260.799 141.062 260.727 141.083 260.642 141.109C260.348 141.197 260.018 141.306 259.662 141.437C258.642 141.812 257.623 142.286 256.678 142.863C252.698 145.292 251.267 148.621 253.712 153.306C255.247 156.25 257.391 157.499 260.128 157.487C262.307 157.478 264.729 156.686 267.376 155.324C267.895 155.056 268.555 155.221 268.85 155.692C269.145 156.163 268.963 156.761 268.444 157.029C265.503 158.542 262.768 159.436 260.138 159.448C256.554 159.464 253.648 157.77 251.757 154.145C248.809 148.496 250.671 144.166 255.47 141.236C256.549 140.578 257.699 140.043 258.848 139.62C259.542 139.365 260.088 139.202 260.417 139.121Z" fill="#111111"/>
<path fill-rule="evenodd" clip-rule="evenodd" d="M295.178 94.6214C292.932 95.0297 291.007 95.5158 289.404 96.0061L289.187 96.0729C275.569 100.276 267.336 107.64 263.608 117.243C260.876 124.28 260.794 131.748 262.285 138.716C262.473 139.592 262.673 140.388 262.874 141.095L262.963 141.401L263.024 141.603C263.063 141.731 263.098 141.844 263.13 141.943L263.189 142.12C263.229 142.758 263.93 143.197 264.61 142.992L268.314 141.872L268.364 141.908C271.451 144.096 279.743 153.563 282.415 158.17C282.711 158.681 283.427 158.85 283.96 158.536L284.278 158.355L284.606 158.172C284.723 158.108 284.847 158.04 284.978 157.969L285.25 157.822C286.326 157.245 287.592 156.601 289.039 155.906C293.182 153.918 297.938 151.929 303.232 150.071L303.911 149.835C308.221 148.346 312.704 147.011 317.34 145.868L318.067 145.691L318.829 145.539C319.001 145.505 319.183 145.469 319.374 145.433L319.766 145.357C321.109 145.102 322.534 144.846 323.976 144.607C325.123 144.417 326.235 144.246 327.293 144.098L328.017 144C330.627 143.655 332.737 143.485 334.156 143.532C334.822 143.554 335.351 143.03 335.268 142.431C333.547 129.951 330.286 117.183 325.613 106.444C322.033 98.2105 314.891 94.332 305.536 93.8655C302.15 93.6966 298.653 93.9895 295.178 94.6214ZM305.416 95.8234C313.989 96.2509 320.36 99.7108 323.6 107.164L323.812 107.653C328.089 117.631 331.149 129.376 332.876 140.965L332.965 141.575L332.937 141.576C331.35 141.626 329.332 141.831 326.964 142.161C325.884 142.311 324.753 142.486 323.587 142.679C322.307 142.89 321.043 143.115 319.835 143.342L318.923 143.515C318.665 143.565 318.423 143.612 318.197 143.657L317.554 143.786L317.516 143.794C312.296 145.055 307.265 146.554 302.451 148.243C297.074 150.129 292.242 152.151 288.027 154.174L287.445 154.455C286.207 155.058 285.105 155.622 284.148 156.135L283.766 156.341L283.727 156.279C280.261 150.896 271.901 141.53 269.048 139.951L268.984 139.918C268.725 139.796 268.422 139.774 268.143 139.858L265.024 140.8C264.815 140.085 264.604 139.261 264.408 138.342C262.983 131.687 263.062 124.554 265.648 117.894C269.12 108.95 276.738 102.077 289.498 98.0494L289.886 97.9282C291.45 97.441 293.357 96.9521 295.602 96.544C298.911 95.9425 302.23 95.6644 305.416 95.8234Z" fill="#111111"/>
<path fill-rule="evenodd" clip-rule="evenodd" d="M268.144 139.824C268.446 139.732 268.778 139.766 269.05 139.917C271.875 141.48 280.097 150.675 283.624 156.082L283.769 156.307L284.15 156.101L284.602 155.861C285.604 155.332 286.748 154.755 288.029 154.14C292.244 152.117 297.077 150.095 302.453 148.209C307.039 146.601 311.82 145.164 316.774 143.942L317.518 143.76L318.031 143.656L318.921 143.481L319.317 143.405C320.675 143.145 322.115 142.885 323.574 142.643C324.579 142.476 325.558 142.323 326.5 142.188L326.968 142.121C330.085 141.686 332.593 141.471 334.316 141.539C334.813 141.559 335.231 141.884 335.329 142.326L335.38 142.566L335.48 143.074C335.503 143.195 335.527 143.324 335.552 143.459L335.634 143.918C335.771 144.7 335.907 145.562 336.035 146.495C336.792 152.011 337.008 157.735 336.353 163.103C336.33 163.296 336.305 163.489 336.279 163.681C336.207 164.218 335.667 164.601 335.075 164.535C334.482 164.469 334.06 163.98 334.133 163.443C334.157 163.259 334.181 163.073 334.204 162.887C334.837 157.693 334.626 152.114 333.889 146.737L333.813 146.199C333.698 145.406 333.579 144.671 333.459 144.001L333.364 143.489L333.256 143.491C331.801 143.521 329.853 143.708 327.538 144.026L327.297 144.059C326.234 144.208 325.117 144.38 323.964 144.571C322.705 144.781 321.459 145.003 320.27 145.227L319.186 145.434L318.313 145.607L318.051 145.66L317.341 145.834C312.705 146.977 308.222 148.312 303.913 149.801L303.234 150.037C297.939 151.895 293.184 153.884 289.041 155.873L288.472 156.148C287.353 156.692 286.35 157.203 285.469 157.672L284.98 157.935C284.848 158.006 284.725 158.074 284.608 158.138L284.043 158.456C284.008 158.476 283.981 158.491 283.962 158.503C283.428 158.817 282.712 158.647 282.416 158.136C279.772 153.575 271.618 144.251 268.46 141.942L268.316 141.839L262.362 143.647L264.364 147.319L265.901 150.122C267.052 152.217 268.198 154.289 269.311 156.289L270.854 159.049C274.11 164.851 276.573 169.081 277.921 171.129C282.229 177.65 284.767 179.592 294.505 183.071C297.778 184.219 301.948 184.867 306.226 184.867C306.823 184.867 307.307 185.306 307.307 185.847C307.307 186.389 306.823 186.828 306.226 186.828C301.691 186.828 297.257 186.139 293.718 184.897L292.821 184.573C283.551 181.191 280.604 178.918 276.336 172.544L276.065 172.135C274.701 170.064 272.274 165.899 269.062 160.179L268.119 158.496C266.653 155.873 265.119 153.099 263.581 150.296L262.259 147.885L259.875 143.506C259.596 142.991 259.863 142.375 260.441 142.165L260.502 142.144L268.144 139.824Z" fill="#111111"/>
<path fill-rule="evenodd" clip-rule="evenodd" d="M261.782 146.047C261.782 146.047 254.898 138.793 249.923 130.134C245.238 121.997 247.184 111.9 254.934 106.018C261.422 101.084 267.621 102.391 267.621 102.391C267.621 102.391 256.411 92.0653 265.242 78.6679C268.342 73.9625 273.497 70.5641 279.444 69.3877C293.934 66.5122 301.431 76.5112 301.431 76.5112C301.431 76.5112 309.758 47.3637 345.514 55.4022C349.119 56.2191 353.877 59.6828 356.4 62.1662C371.647 77.2301 342.955 105.659 325.509 111.345C306.37 117.618 294.042 117.292 286.509 114.351C291.952 115.854 292.132 143.531 261.782 146.047Z" fill="#111111"/>
<path fill-rule="evenodd" clip-rule="evenodd" d="M316.531 135.805C317.253 135.558 318.056 135.871 318.361 136.505L318.389 136.567L325.165 152.873C325.514 153.711 324.85 154.605 323.876 154.64L323.809 154.641L316.852 154.608C316.056 154.604 315.414 154.016 315.418 153.294C315.422 152.594 316.032 152.026 316.795 151.995L316.867 151.994L321.728 152.017L315.691 137.489C315.419 136.835 315.763 136.107 316.463 135.83L316.531 135.805Z" fill="#111111"/>
<ellipse cx="313.327" cy="164.346" rx="3.42426" ry="3.10428" fill="#111111"/>
<ellipse cx="1.93618" cy="2.7623" rx="1.93618" ry="2.7623" transform="matrix(0.975232 -0.221185 0.266024 0.963966 321.685 133.447)" fill="#111111"/>
<ellipse cx="1.93618" cy="2.7623" rx="1.93618" ry="2.7623" transform="matrix(0.975232 -0.221185 0.266024 0.963966 303.341 137.307)" fill="#111111"/>
<path fill-rule="evenodd" clip-rule="evenodd" d="M301.294 123.082C302.086 123.013 302.791 123.54 302.867 124.258C302.943 124.977 302.362 125.615 301.57 125.684C299.592 125.857 298.05 126.576 296.855 127.678C296.37 128.126 295.977 128.607 295.671 129.085L295.589 129.216C295.475 129.404 295.401 129.546 295.366 129.625L295.355 129.65C295.073 130.325 294.241 130.665 293.496 130.409C292.751 130.153 292.376 129.399 292.658 128.724C292.748 128.509 292.917 128.18 293.177 127.773C293.598 127.115 294.134 126.459 294.798 125.846C296.449 124.324 298.608 123.316 301.294 123.082Z" fill="#111111"/>
<path fill-rule="evenodd" clip-rule="evenodd" d="M319.332 118.535C320.644 118.122 321.999 117.943 323.326 118.148C324.963 118.4 326.351 119.226 327.317 120.664C327.732 121.28 327.516 122.084 326.836 122.46C326.156 122.835 325.269 122.64 324.855 122.024C324.332 121.245 323.672 120.853 322.842 120.725C322.067 120.605 321.17 120.723 320.277 121.004C320.046 121.077 319.834 121.155 319.65 121.231L319.488 121.301L319.458 121.315C318.759 121.66 317.883 121.426 317.503 120.792C317.122 120.158 317.38 119.364 318.08 119.019L318.204 118.96C318.472 118.837 318.856 118.684 319.332 118.535Z" fill="#111111"/>
<path fill-rule="evenodd" clip-rule="evenodd" d="M532.047 238H391.905C390.067 238 388.481 239.144 388.048 240.778L368.548 315.542H317.761C317.761 315.542 314.949 328.71 331.35 328.71C339.676 328.71 510.276 328.71 510.276 328.71C512.114 328.71 513.7 327.567 514.133 325.933L535.904 242.411C536.481 240.157 534.606 238 532.047 238Z" fill="#111111"/>
<path fill-rule="evenodd" clip-rule="evenodd" d="M476.43 127.291H475.313C474.303 127.291 473.51 126.572 473.51 125.657V123.075C473.51 122.16 474.303 121.441 475.313 121.441H476.43C477.439 121.441 478.232 122.16 478.232 123.075V125.657C478.232 126.572 477.439 127.291 476.43 127.291Z" fill="#6D49E9"/>
<path fill-rule="evenodd" clip-rule="evenodd" d="M469.906 127.291H441.142C440.133 127.291 439.34 126.572 439.34 125.657V123.075C439.34 122.16 440.133 121.441 441.142 121.441H469.906C470.915 121.441 471.708 122.16 471.708 123.075V125.657C471.708 126.572 470.915 127.291 469.906 127.291Z" fill="#8976FD"/>
<path fill-rule="evenodd" clip-rule="evenodd" d="M472.862 154.445H441.179C440.169 154.445 439.376 153.726 439.376 152.811V150.23C439.376 149.315 440.169 148.596 441.179 148.596H472.862C473.871 148.596 474.664 149.315 474.664 150.23V152.811C474.664 153.726 473.835 154.445 472.862 154.445Z" fill="#8976FD"/>
<path fill-rule="evenodd" clip-rule="evenodd" d="M501.229 145.394H450.081C449.072 145.394 448.279 144.675 448.279 143.76V141.179C448.279 140.264 449.072 139.545 450.081 139.545H501.229C502.238 139.545 503.031 140.264 503.031 141.179V143.76C503.031 144.675 502.238 145.394 501.229 145.394Z" fill="#6D49E9"/>
<path fill-rule="evenodd" clip-rule="evenodd" d="M533.849 145.394H507.897C506.887 145.394 506.094 144.675 506.094 143.76V141.179C506.094 140.264 506.887 139.545 507.897 139.545H533.849C534.858 139.545 535.651 140.264 535.651 141.179V143.76C535.651 144.675 534.858 145.394 533.849 145.394Z" fill="#6D49E9"/>
<path fill-rule="evenodd" clip-rule="evenodd" d="M543.869 136.375H542.752C541.742 136.375 540.949 135.656 540.949 134.741V132.159C540.949 131.244 541.742 130.525 542.752 130.525H543.869C544.878 130.525 545.671 131.244 545.671 132.159V134.741C545.671 135.623 544.878 136.375 543.869 136.375Z" fill="#8976FD"/>
<path fill-rule="evenodd" clip-rule="evenodd" d="M494.164 136.341H441.142C440.133 136.341 439.34 135.622 439.34 134.707V132.126C439.34 131.211 440.133 130.492 441.142 130.492H494.164C495.173 130.492 495.966 131.211 495.966 132.126V134.707C495.966 135.622 495.173 136.341 494.164 136.341Z" fill="#8976FD"/>
<path fill-rule="evenodd" clip-rule="evenodd" d="M510.889 127.291H482.125C481.115 127.291 480.323 126.572 480.323 125.657V123.075C480.323 122.16 481.115 121.441 482.125 121.441H510.889C511.898 121.441 512.691 122.16 512.691 123.075V125.657C512.691 126.572 511.862 127.291 510.889 127.291Z" fill="#8976FD"/>
<path fill-rule="evenodd" clip-rule="evenodd" d="M536.625 136.374H500.292C499.283 136.374 498.49 135.655 498.49 134.74V132.126C498.49 131.211 499.283 130.492 500.292 130.492H536.625C537.635 130.492 538.428 131.211 538.428 132.126V134.74C538.428 135.622 537.635 136.374 536.625 136.374Z" fill="#6D49E9"/>
<path fill-rule="evenodd" clip-rule="evenodd" d="M469.906 185.911H441.142C440.133 185.911 439.34 185.193 439.34 184.278V181.696C439.34 180.781 440.133 180.062 441.142 180.062H469.906C470.915 180.062 471.708 180.781 471.708 181.696V184.278C471.708 185.193 470.915 185.911 469.906 185.911Z" fill="#8976FD"/>
<path fill-rule="evenodd" clip-rule="evenodd" d="M472.862 213.066H441.179C440.169 213.066 439.376 212.347 439.376 211.432V208.851C439.376 207.936 440.169 207.217 441.179 207.217H472.862C473.871 207.217 474.664 207.936 474.664 208.851V211.432C474.664 212.314 473.835 213.066 472.862 213.066Z" fill="#8976FD"/>
<path fill-rule="evenodd" clip-rule="evenodd" d="M501.229 204.013H450.081C449.072 204.013 448.279 203.294 448.279 202.379V199.798C448.279 198.883 449.072 198.164 450.081 198.164H501.229C502.238 198.164 503.031 198.883 503.031 199.798V202.379C503.031 203.294 502.238 204.013 501.229 204.013Z" fill="#6D49E9"/>
<path fill-rule="evenodd" clip-rule="evenodd" d="M533.849 204.013H507.897C506.887 204.013 506.094 203.294 506.094 202.379V199.798C506.094 198.883 506.887 198.164 507.897 198.164H533.849C534.858 198.164 535.651 198.883 535.651 199.798V202.379C535.651 203.294 534.858 204.013 533.849 204.013Z" fill="#6D49E9"/>
<path fill-rule="evenodd" clip-rule="evenodd" d="M543.869 194.996H542.752C541.742 194.996 540.949 194.277 540.949 193.362V190.78C540.949 189.865 541.742 189.146 542.752 189.146H543.869C544.878 189.146 545.671 189.865 545.671 190.78V193.362C545.671 194.244 544.878 194.996 543.869 194.996Z" fill="#8976FD"/>
<path fill-rule="evenodd" clip-rule="evenodd" d="M552.088 185.912H550.97C549.961 185.912 549.168 185.193 549.168 184.278V181.696C549.168 180.781 549.961 180.062 550.97 180.062H552.088C553.097 180.062 553.89 180.781 553.89 181.696V184.278C553.89 185.193 553.097 185.912 552.088 185.912Z" fill="#8976FD"/>
<path fill-rule="evenodd" clip-rule="evenodd" d="M494.164 194.963H441.142C440.133 194.963 439.34 194.244 439.34 193.329V190.747C439.34 189.832 440.133 189.113 441.142 189.113H494.164C495.173 189.113 495.966 189.832 495.966 190.747V193.329C495.966 194.244 495.173 194.963 494.164 194.963Z" fill="#8976FD"/>
<path fill-rule="evenodd" clip-rule="evenodd" d="M510.888 185.912H475.348C474.339 185.912 473.546 185.193 473.546 184.278V181.696C473.546 180.781 474.339 180.062 475.348 180.062H510.888C511.897 180.062 512.69 180.781 512.69 181.696V184.278C512.69 185.193 511.861 185.912 510.888 185.912Z" fill="#6D49E9"/>
<path fill-rule="evenodd" clip-rule="evenodd" d="M545.743 185.912H516.98C515.97 185.912 515.177 185.193 515.177 184.278V181.696C515.177 180.781 515.97 180.062 516.98 180.062H545.743C546.753 180.062 547.546 180.781 547.546 181.696V184.278C547.546 185.193 546.753 185.912 545.743 185.912Z" fill="#6D49E9"/>
<path fill-rule="evenodd" clip-rule="evenodd" d="M476.43 177.154H475.313C474.303 177.154 473.51 176.435 473.51 175.52V172.939C473.51 172.024 474.303 171.305 475.313 171.305H476.43C477.439 171.305 478.232 172.024 478.232 172.939V175.52C478.232 176.402 477.439 177.154 476.43 177.154Z" fill="#6D49E9"/>
<path fill-rule="evenodd" clip-rule="evenodd" d="M469.906 177.154H441.142C440.133 177.154 439.34 176.435 439.34 175.52V172.939C439.34 172.024 440.133 171.305 441.142 171.305H469.906C470.915 171.305 471.708 172.024 471.708 172.939V175.52C471.708 176.402 470.915 177.154 469.906 177.154Z" fill="#8976FD"/>
<path fill-rule="evenodd" clip-rule="evenodd" d="M510.889 177.154H482.125C481.115 177.154 480.323 176.435 480.323 175.52V172.939C480.323 172.024 481.115 171.305 482.125 171.305H510.889C511.898 171.305 512.691 172.024 512.691 172.939V175.52C512.691 176.402 511.862 177.154 510.889 177.154Z" fill="#8976FD"/>
<path fill-rule="evenodd" clip-rule="evenodd" d="M536.625 194.995H500.292C499.283 194.995 498.49 194.276 498.49 193.361V190.747C498.49 189.832 499.283 189.113 500.292 189.113H536.625C537.635 189.113 538.428 189.832 538.428 190.747V193.361C538.428 194.244 537.635 194.995 536.625 194.995Z" fill="#6D49E9"/>
<path fill-rule="evenodd" clip-rule="evenodd" d="M581.381 292.93C587.17 292.53 592.197 296.467 592.598 301.708C593.04 306.956 588.698 311.513 582.887 311.879C581.981 311.92 581.24 311.903 580.51 311.804C579.92 311.724 579.513 311.224 579.601 310.689C579.69 310.154 580.24 309.785 580.831 309.865C581.398 309.942 582.004 309.956 582.758 309.922C587.35 309.633 590.793 306.02 590.441 301.851C590.122 297.688 586.138 294.567 581.553 294.885C580.804 294.941 580.06 295.082 579.354 295.295C578.788 295.467 578.176 295.189 577.987 294.675C577.798 294.162 578.104 293.607 578.671 293.435C579.537 293.174 580.45 293.001 581.381 292.93Z" fill="#8976FD"/>
<path fill-rule="evenodd" clip-rule="evenodd" d="M542.247 279.851C542.691 279.521 543.338 279.565 543.724 279.941L543.769 279.988L557.213 294.856C557.592 295.274 557.525 295.892 557.063 296.235C556.619 296.565 555.972 296.521 555.586 296.145L555.541 296.099L542.096 281.231C541.718 280.812 541.785 280.194 542.247 279.851Z" fill="#8976FD"/>
<path fill-rule="evenodd" clip-rule="evenodd" d="M540.95 290.871V318.908C540.95 324.332 545.78 328.711 551.764 328.711H570.002C575.986 328.711 580.816 324.332 580.816 318.908V290.871H540.95ZM557.098 311.393C557.35 311.556 557.458 311.72 557.458 311.981C557.458 312.177 557.386 312.308 557.242 312.439C557.098 312.569 556.918 312.635 556.738 312.635C556.593 312.635 556.485 312.602 556.377 312.537L549.168 308.616C548.916 308.452 548.772 308.256 548.772 308.027C548.772 307.799 548.916 307.603 549.168 307.439L556.377 303.518C556.485 303.453 556.593 303.42 556.738 303.42C556.954 303.42 557.098 303.485 557.242 303.616C557.386 303.747 557.458 303.91 557.458 304.073C557.458 304.302 557.35 304.498 557.098 304.662L550.898 308.027L557.098 311.393ZM566.109 301.719L560.306 314.855C560.27 314.92 560.234 314.986 560.162 315.051C560.017 315.182 559.837 315.247 559.657 315.247C559.441 315.247 559.296 315.182 559.152 315.051C559.008 314.92 558.936 314.757 558.936 314.594C558.936 314.496 558.972 314.398 559.008 314.3L564.811 301.164C564.847 301.098 564.883 301.033 564.955 300.968C565.1 300.837 565.28 300.771 565.46 300.771C565.676 300.771 565.821 300.837 565.965 300.968C566.109 301.098 566.181 301.262 566.181 301.425C566.181 301.556 566.145 301.654 566.109 301.719ZM575.914 308.616L568.705 312.537C568.597 312.602 568.488 312.635 568.344 312.635C568.128 312.635 567.984 312.569 567.84 312.439C567.695 312.308 567.623 312.145 567.623 311.981C567.623 311.752 567.731 311.556 567.984 311.393L574.184 308.027L567.984 304.662C567.731 304.498 567.623 304.335 567.623 304.073C567.623 303.877 567.695 303.747 567.84 303.616C567.984 303.485 568.164 303.42 568.344 303.42C568.488 303.42 568.597 303.453 568.705 303.518L575.914 307.439C576.166 307.603 576.31 307.799 576.31 308.027C576.31 308.256 576.202 308.485 575.914 308.616Z" fill="#8976FD"/>
<path fill-rule="evenodd" clip-rule="evenodd" d="M130.946 292.932C131.646 292.892 132.271 292.901 132.85 292.971C133.442 293.043 133.858 293.536 133.779 294.072C133.701 294.609 133.157 294.986 132.565 294.914C132.141 294.863 131.651 294.856 131.088 294.888C126.509 295.176 123.085 298.78 123.405 302.959C123.724 307.122 127.709 310.242 132.301 309.924C132.896 309.883 133.416 310.287 133.461 310.827C133.507 311.367 133.061 311.838 132.466 311.879C126.677 312.28 121.65 308.343 121.248 303.095C120.845 297.84 125.163 293.296 130.946 292.932Z" fill="#8976FD"/>
<path fill-rule="evenodd" clip-rule="evenodd" d="M131.159 290.871V318.908C131.159 324.332 135.989 328.711 141.972 328.711H160.211C166.194 328.711 171.024 324.332 171.024 318.908V290.871H131.159ZM147.271 311.393C147.524 311.556 147.632 311.72 147.632 311.981C147.632 312.177 147.56 312.308 147.415 312.439C147.271 312.569 147.091 312.635 146.911 312.635C146.767 312.635 146.659 312.602 146.55 312.537L139.341 308.616C139.089 308.452 138.945 308.256 138.945 308.027C138.945 307.799 139.089 307.603 139.341 307.439L146.55 303.518C146.659 303.453 146.767 303.42 146.911 303.42C147.127 303.42 147.271 303.485 147.415 303.616C147.56 303.747 147.632 303.91 147.632 304.073C147.632 304.302 147.524 304.498 147.271 304.662L141.072 308.027L147.271 311.393ZM162.481 308.616L155.272 312.537C155.164 312.602 155.056 312.635 154.912 312.635C154.695 312.635 154.551 312.569 154.407 312.439C154.263 312.308 154.191 312.145 154.191 311.981C154.191 311.752 154.299 311.556 154.551 311.393L160.751 308.027L154.551 304.662C154.299 304.498 154.191 304.335 154.191 304.073C154.191 303.877 154.263 303.747 154.407 303.616C154.551 303.485 154.731 303.42 154.912 303.42C155.056 303.42 155.164 303.453 155.272 303.518L162.481 307.439C162.733 307.603 162.878 307.799 162.878 308.027C162.878 308.256 162.733 308.485 162.481 308.616Z" fill="#8976FD"/>
<path fill-rule="evenodd" clip-rule="evenodd" d="M192.56 270.603C193.063 270.351 193.692 270.501 193.995 270.936L194.029 270.987L198.967 279.091C199.256 279.565 199.066 280.161 198.544 280.423C198.04 280.675 197.411 280.525 197.108 280.09L197.074 280.039L192.136 271.935C191.847 271.461 192.037 270.865 192.56 270.603Z" fill="#8976FD"/>
<path fill-rule="evenodd" clip-rule="evenodd" d="M214.385 279.467C214.982 279.467 215.466 279.906 215.466 280.447C215.466 280.969 215.016 281.396 214.449 281.426L214.385 281.427H187.063C186.466 281.427 185.982 280.988 185.982 280.447C185.982 279.925 186.432 279.498 186.999 279.468L187.063 279.467H214.385Z" fill="#8976FD"/>
<path fill-rule="evenodd" clip-rule="evenodd" d="M210.603 306.85C210.207 306.491 209.702 306.295 209.089 306.295C208.513 306.295 208.008 306.491 207.575 306.85C207.179 307.21 206.963 307.667 206.963 308.223C206.963 308.746 207.179 309.203 207.575 309.595C207.972 309.955 208.477 310.151 209.089 310.151C209.666 310.151 210.171 309.955 210.603 309.595C211 309.236 211.216 308.778 211.216 308.223C211.216 307.667 211.036 307.21 210.603 306.85Z" fill="#8976FD"/>
<path fill-rule="evenodd" clip-rule="evenodd" d="M209.124 303.975C209.701 303.975 210.206 303.779 210.638 303.419C211.035 303.06 211.251 302.603 211.251 302.047C211.251 301.524 211.035 301.067 210.638 300.675C210.242 300.315 209.737 300.119 209.124 300.119C208.548 300.119 208.043 300.315 207.611 300.675C207.214 301.034 206.998 301.492 206.998 302.047C206.998 302.57 207.214 303.027 207.611 303.419C208.043 303.779 208.512 303.975 209.124 303.975Z" fill="#8976FD"/>
<path fill-rule="evenodd" clip-rule="evenodd" d="M210.603 315.705C211 315.345 211.216 314.888 211.216 314.332C211.216 313.809 211 313.352 210.603 312.96C210.207 312.6 209.702 312.404 209.089 312.404C208.513 312.404 208.008 312.6 207.575 312.96C207.179 313.319 206.963 313.777 206.963 314.332C206.963 314.855 207.179 315.313 207.575 315.705C207.972 316.064 208.477 316.26 209.089 316.26C209.702 316.26 210.207 316.064 210.603 315.705Z" fill="#8976FD"/>
<path fill-rule="evenodd" clip-rule="evenodd" d="M217.092 286.362L212.299 280.709H189.194L184.4 286.362C183.931 286.918 183.679 287.538 183.679 288.192V322.6C183.679 323.679 184.328 324.659 185.445 325.313C186.923 326.162 188.833 327.437 188.941 328.678H212.479C212.623 327.437 214.497 326.129 215.975 325.313C217.092 324.692 217.741 323.679 217.741 322.6V288.192C217.777 287.538 217.561 286.885 217.092 286.362ZM207.072 292.963L209.595 289.139C209.704 289.009 209.812 288.943 209.992 288.943C210.136 288.943 210.28 289.009 210.388 289.139L212.912 292.963C212.948 293.028 212.948 293.093 212.948 293.159C212.948 293.257 212.912 293.355 212.839 293.42C212.767 293.485 212.659 293.518 212.551 293.518C212.407 293.518 212.263 293.453 212.191 293.322L210.028 290.054L207.865 293.322C207.757 293.453 207.649 293.518 207.505 293.518C207.397 293.518 207.289 293.485 207.216 293.42C207.144 293.355 207.108 293.257 207.108 293.159C207 293.061 207.036 292.995 207.072 292.963ZM207.216 294.399C207.288 294.367 207.36 294.334 207.468 294.334C207.576 294.334 207.684 294.367 207.756 294.432C207.828 294.497 207.864 294.595 207.864 294.693C207.864 294.791 207.828 294.889 207.756 294.955C207.684 295.02 207.612 295.053 207.612 295.086C207.216 295.445 206.999 295.902 206.999 296.458C206.999 296.981 207.18 297.406 207.54 297.732C207.648 297.798 207.756 297.863 207.901 297.863C208.081 297.863 208.189 297.765 208.225 297.634L209.09 295.282C209.198 294.988 209.342 294.791 209.45 294.661C209.703 294.432 209.991 294.334 210.352 294.334C210.712 294.334 211 294.465 211.253 294.693C211.757 295.151 212.046 295.739 212.046 296.491C212.046 297.308 211.685 297.994 211 298.549C210.928 298.615 210.856 298.615 210.748 298.615C210.64 298.615 210.532 298.582 210.46 298.517C210.388 298.451 210.352 298.353 210.352 298.255C210.352 298.157 210.388 298.059 210.46 297.994C210.532 297.928 210.604 297.896 210.604 297.863C211 297.504 211.217 297.046 211.217 296.491C211.217 295.968 211.036 295.543 210.676 295.216C210.568 295.151 210.46 295.086 210.316 295.086C210.135 295.086 210.027 295.184 209.991 295.314L209.126 297.667C209.018 297.961 208.874 298.157 208.766 298.288C208.513 298.517 208.225 298.615 207.864 298.615C207.504 298.615 207.216 298.484 206.963 298.255C206.459 297.798 206.17 297.21 206.17 296.458C206.17 295.641 206.495 294.955 207.216 294.399ZM207.035 300.151C207.612 299.629 208.297 299.367 209.126 299.367C209.955 299.367 210.64 299.629 211.217 300.151C211.793 300.674 212.082 301.295 212.082 302.047C212.082 302.798 211.793 303.419 211.217 303.942C210.64 304.465 209.955 304.726 209.126 304.726C208.297 304.726 207.612 304.465 207.035 303.942C206.459 303.419 206.17 302.798 206.17 302.047C206.17 301.295 206.459 300.674 207.035 300.151ZM206.279 316.916C206.207 316.85 206.171 316.752 206.171 316.654C206.171 316.556 206.207 316.458 206.279 316.393C206.351 316.328 206.46 316.295 206.568 316.295H207.036C206.46 315.772 206.135 315.119 206.135 314.367C206.135 313.615 206.424 312.995 207 312.472C207.577 311.949 208.262 311.688 209.091 311.688C209.92 311.688 210.605 311.949 211.181 312.472C211.758 312.995 212.047 313.615 212.047 314.367C212.047 315.119 211.758 315.739 211.181 316.262C210.605 316.785 209.92 317.046 209.091 317.046H206.568C206.46 317.014 206.351 316.981 206.279 316.916ZM212.875 318.352L210.352 322.176C210.244 322.306 210.136 322.372 209.955 322.372C209.811 322.372 209.667 322.306 209.559 322.176L207.036 318.352C207 318.287 207 318.222 207 318.156C207 318.058 207.036 317.96 207.108 317.895C207.18 317.83 207.288 317.797 207.396 317.797C207.54 317.797 207.685 317.862 207.757 317.993L209.919 321.261L212.082 317.993C212.19 317.862 212.298 317.797 212.442 317.797C212.551 317.797 212.659 317.83 212.731 317.895C212.803 317.96 212.839 318.058 212.839 318.156C212.911 318.254 212.911 318.287 212.875 318.352ZM214.497 310.771C214.425 310.836 214.316 310.869 214.208 310.869H209.126C208.297 310.869 207.612 310.607 207.035 310.084C206.459 309.562 206.17 308.941 206.17 308.189C206.17 307.438 206.459 306.817 207.035 306.294C207.612 305.771 208.297 305.51 209.126 305.51C209.955 305.51 210.64 305.771 211.217 306.294C211.793 306.817 212.082 307.438 212.082 308.189C212.082 308.941 211.793 309.562 211.217 310.084C211.217 310.084 211.217 310.084 211.181 310.117H214.208C214.316 310.117 214.425 310.15 214.497 310.215C214.569 310.281 214.605 310.379 214.605 310.477C214.605 310.575 214.569 310.705 214.497 310.771Z" fill="#8976FD"/>
<path fill-rule="evenodd" clip-rule="evenodd" d="M303.615 168.842C305.186 166.902 307.996 167.417 310.861 170.101C313.65 172.719 315.442 176.193 316.433 179.966C316.572 180.493 316.213 181.022 315.632 181.147C315.051 181.272 314.468 180.947 314.33 180.42C313.421 176.959 311.786 173.792 309.306 171.464C307.243 169.531 305.934 169.291 305.359 170.002C304.658 170.868 304.751 172.838 305.788 174.726L305.853 174.842C307.358 177.481 307.779 182.68 307.559 189.112C307.541 189.653 307.042 190.078 306.445 190.061C305.848 190.044 305.379 189.592 305.398 189.051L305.419 188.365C305.571 182.688 305.16 178.002 303.98 175.828L303.932 175.743C302.493 173.222 302.34 170.418 303.615 168.842Z" fill="#111111"/>
<path fill-rule="evenodd" clip-rule="evenodd" d="M351.858 164.279C346.065 164.279 341.369 168.537 341.369 173.788C341.369 179.04 346.065 183.297 351.858 183.297C357.651 183.297 362.347 179.04 362.347 173.788C362.347 168.537 357.651 164.279 351.858 164.279ZM351.858 166.24C356.457 166.24 360.185 169.62 360.185 173.789C360.185 177.957 356.457 181.337 351.858 181.337C347.26 181.337 343.532 177.957 343.532 173.789C343.532 169.62 347.26 166.24 351.858 166.24Z" fill="#111111"/>
<path fill-rule="evenodd" clip-rule="evenodd" d="M295.717 204.984C296.173 204.686 296.8 204.755 297.164 205.134L297.361 205.357C297.492 205.507 297.647 205.681 297.826 205.878C298.339 206.442 298.934 207.072 299.605 207.75C301.521 209.691 303.65 211.632 305.931 213.441C311.411 217.787 316.867 220.667 321.935 221.411C322.353 221.473 322.693 221.749 322.805 222.12L322.829 222.204C322.865 222.344 322.907 222.55 322.947 222.823C323.159 224.271 323.124 226.265 322.689 228.84L322.65 229.069C322.425 230.348 322.767 231.244 323.905 232.825L324.473 233.604C325.299 234.748 325.707 235.448 326.012 236.378C326.451 237.716 326.435 239.132 325.9 240.724L325.893 240.753C325.763 241.408 324.69 250.874 324.177 254.943L324.13 255.312C322.767 265.935 321.132 275.85 319.023 285.242C316.241 297.623 312.868 307.936 308.788 315.635C303.87 324.917 298.023 330.194 291.061 330.666C290.465 330.707 289.946 330.302 289.902 329.762C289.857 329.222 290.304 328.752 290.899 328.711C296.839 328.309 302.114 323.597 306.7 315.047L306.839 314.786C310.828 307.259 314.155 297.087 316.903 284.851C318.942 275.773 320.537 266.19 321.871 255.941L322.07 254.379C322.569 250.357 323.652 240.842 323.822 240.182L323.828 240.163C324.558 237.991 324.189 236.78 322.571 234.55L322.192 234.033C320.71 232 320.177 230.677 320.514 228.76C320.929 226.401 320.987 224.596 320.833 223.309L320.822 223.22L320.622 223.182C315.452 222.189 310.098 219.308 304.758 215.115L304.507 214.917C302.155 213.051 299.965 211.055 297.993 209.058C297.428 208.486 296.914 207.947 296.455 207.45L296.173 207.141L295.683 207.497C294.738 208.186 293.534 209.094 292.043 210.25C291.092 210.986 290.054 211.377 288.88 211.498L288.703 211.514C287.972 211.576 287.35 211.541 286.101 211.41L285.948 211.394C283.001 211.08 281.787 211.293 280.197 212.908L280.115 212.993C279.093 214.05 273.874 221.63 265.908 233.531L263.385 237.307L262.354 238.853C259.933 242.486 257.42 246.273 254.887 250.101L248.692 259.485L247.105 261.896C246.8 262.362 246.136 262.514 245.623 262.237C245.129 261.97 244.955 261.402 245.215 260.945L247.034 258.177L250.314 253.205C253.577 248.263 256.852 243.321 259.982 238.621L263.837 232.844C272.111 220.479 277.329 212.9 278.487 211.702C279.708 210.434 281.028 209.716 282.511 209.438C283.495 209.254 284.276 209.257 285.701 209.396L286.497 209.477C288.711 209.697 289.58 209.578 290.638 208.759L291.543 208.061C292.642 207.218 293.566 206.525 294.327 205.969L294.893 205.56C295.03 205.461 295.156 205.372 295.27 205.292L295.644 205.034C295.675 205.013 295.699 204.996 295.717 204.984Z" fill="#111111"/>
<path fill-rule="evenodd" clip-rule="evenodd" d="M322.699 228.784C323.6 223.915 323.961 221.824 323.961 221.824C310.192 219.896 296.026 204.211 296.026 204.211C296.026 204.211 294.62 205.159 290.655 208.263C289.069 209.505 287.411 209.505 285.681 209.341C284.456 222.967 311.453 235.09 324.213 235.679C323.42 232.411 322.014 232.476 322.699 228.784Z" fill="#111111"/>
<path fill-rule="evenodd" clip-rule="evenodd" d="M244.343 245.473C248.381 245.01 251.937 245.859 254.772 248.263C255.209 248.633 255.231 249.253 254.824 249.648C254.416 250.044 253.731 250.065 253.295 249.695C250.965 247.719 248.052 247.023 244.615 247.418C241.495 247.776 238.105 249.012 234.667 250.852C233.201 251.637 231.827 252.479 230.586 253.321L230.27 253.537C230.065 253.678 229.873 253.814 229.694 253.942L229.435 254.13C229.343 254.198 229.26 254.259 229.188 254.314L229.04 254.427C228.588 254.78 227.905 254.735 227.515 254.325C227.125 253.915 227.175 253.296 227.628 252.942L227.777 252.828C227.84 252.78 227.916 252.723 228.005 252.657L228.349 252.407C228.634 252.202 228.948 251.982 229.291 251.751C230.591 250.869 232.029 249.988 233.567 249.164C237.237 247.2 240.885 245.87 244.343 245.473Z" fill="#111111"/>
<path fill-rule="evenodd" clip-rule="evenodd" d="M334.609 169.186L334.514 169.196C333.064 169.385 329.073 171.443 323.45 174.73L322.299 175.406C317.187 178.427 312.159 181.634 310.49 182.951L310.399 183.026C308.904 184.302 305.531 189.327 300.593 197.354L300.283 197.859C299.993 198.331 299.7 198.81 299.403 199.297L298.529 200.736C296.916 203.395 295.257 206.173 293.606 208.969L292.172 211.404C291.648 212.297 291.154 213.141 290.697 213.926L289.733 215.586C289.464 216.05 289.647 216.625 290.148 216.888L317.398 231.233L317.457 231.262C318.01 231.514 318.692 231.292 318.937 230.767L332.285 202.148L332.469 202.145C338.108 202.028 341.879 200.674 343.582 198.491C345.22 196.391 344.433 193.704 341.996 193.529L341.931 193.525C341.614 193.506 341.192 193.506 340.672 193.523L340.341 193.536L340.381 193.524C343.655 192.538 345.626 191.037 346.251 189.209C346.956 187.144 345.618 184.983 343.6 184.869L343.553 184.866C343.072 184.841 342.195 184.931 340.949 185.124L340.752 185.154L340.825 185.119C342.622 184.226 343.804 182.883 344.186 181.368C344.67 179.445 343.71 177.622 341.753 177.155L341.694 177.142C340.568 176.919 337.609 177.446 333.536 178.48L333.101 178.591L333.299 178.487C334.57 177.817 335.654 177.217 336.522 176.7C338.894 175.284 339.708 173.363 338.877 171.596C338.168 170.086 336.35 169.05 334.609 169.186ZM336.887 172.365C337.279 173.199 336.881 174.138 335.332 175.062L335.047 175.231C334.019 175.833 332.693 176.55 331.125 177.359L330.341 177.761C330.152 177.857 329.961 177.954 329.767 178.052C328.248 178.819 326.632 179.612 325.005 180.393L323.922 180.911L322.216 181.716L321.953 181.838C320.757 182.393 321.529 184.035 322.799 183.637L323.601 183.387C332.215 180.714 339.986 178.765 341.205 179.052C341.929 179.225 342.32 179.966 342.077 180.932C341.771 182.146 340.58 183.261 338.624 183.858L338.447 183.911L323.777 188.649C322.504 189.061 323.052 190.77 324.339 190.537L324.455 190.512L326.494 190.055L327.002 189.942C328.974 189.506 330.99 189.07 332.933 188.663L333.786 188.485L334.996 188.237C339.542 187.312 342.713 186.773 343.448 186.825C343.978 186.855 344.502 187.7 344.184 188.629C343.672 190.129 341.406 191.507 337.116 192.267L335.676 192.516C328.083 193.849 325.373 194.725 324.954 195.579C324.618 196.265 325.221 197.017 326.031 196.954L327.984 196.717C329.434 196.543 330.94 196.369 332.424 196.207L333.186 196.125L334.889 195.948C338.398 195.594 340.9 195.418 341.825 195.484C342.344 195.521 342.591 196.365 341.816 197.36C340.497 199.051 337.075 200.206 331.568 200.193L331.496 200.195C331.09 200.218 330.729 200.448 330.569 200.791L317.422 228.979L292.13 215.665L293.907 212.621C294.137 212.23 294.373 211.828 294.614 211.418L295.512 209.895C297.459 206.598 299.417 203.326 301.296 200.246L302.172 198.813L303.052 197.385C307.566 190.086 310.801 185.306 311.91 184.43C315.848 181.321 332.89 171.287 334.793 171.14C335.585 171.078 336.537 171.62 336.887 172.365Z" fill="#111111"/>
<path fill-rule="evenodd" clip-rule="evenodd" d="M274.39 292.932C280.178 292.532 285.205 296.468 285.607 301.71C286.049 306.958 281.706 311.515 275.907 311.88C274.525 311.956 273.214 311.827 272.039 311.472C271.473 311.301 271.167 310.746 271.356 310.232C271.544 309.719 272.157 309.441 272.723 309.612C273.618 309.883 274.656 309.985 275.767 309.924C280.359 309.635 283.801 306.022 283.45 301.853C283.131 297.69 279.146 294.569 274.549 294.888C274.095 294.917 273.64 294.976 273.185 295.064C272.601 295.178 272.026 294.841 271.901 294.311C271.776 293.782 272.148 293.261 272.732 293.147C273.285 293.04 273.84 292.968 274.39 292.932Z" fill="#111111"/>
<path fill-rule="evenodd" clip-rule="evenodd" d="M233.994 290.871V318.908C233.994 324.332 238.824 328.711 244.807 328.711H263.046C269.029 328.711 273.859 324.332 273.859 318.908V290.871H233.994ZM250.106 311.393C250.359 311.556 250.467 311.72 250.467 311.981C250.467 312.177 250.395 312.308 250.251 312.439C250.106 312.569 249.926 312.635 249.746 312.635C249.602 312.635 249.494 312.602 249.386 312.537L242.177 308.616C241.924 308.452 241.78 308.256 241.78 308.027C241.78 307.799 241.924 307.603 242.177 307.439L249.386 303.518C249.494 303.453 249.602 303.42 249.746 303.42C249.962 303.42 250.106 303.485 250.251 303.616C250.395 303.747 250.467 303.91 250.467 304.073C250.467 304.302 250.359 304.498 250.106 304.662L243.907 308.027L250.106 311.393ZM259.117 301.719L253.314 314.855C253.278 314.92 253.242 314.986 253.17 315.051C253.026 315.182 252.846 315.247 252.665 315.247C252.449 315.247 252.305 315.182 252.161 315.051C252.017 314.92 251.944 314.757 251.944 314.594C251.944 314.496 251.981 314.398 252.017 314.3L257.82 301.164C257.856 301.098 257.892 301.033 257.964 300.968C258.108 300.837 258.288 300.771 258.469 300.771C258.685 300.771 258.829 300.837 258.973 300.968C259.117 301.098 259.19 301.262 259.19 301.425C259.19 301.556 259.153 301.654 259.117 301.719ZM268.921 308.616L261.712 312.537C261.604 312.602 261.496 312.635 261.351 312.635C261.135 312.635 260.991 312.569 260.847 312.439C260.703 312.308 260.63 312.145 260.63 311.981C260.63 311.752 260.739 311.556 260.991 311.393L267.191 308.027L260.991 304.662C260.739 304.498 260.63 304.335 260.63 304.073C260.63 303.877 260.703 303.747 260.847 303.616C260.991 303.485 261.171 303.42 261.351 303.42C261.496 303.42 261.604 303.453 261.712 303.518L268.921 307.439C269.173 307.603 269.317 307.799 269.317 308.027C269.353 308.256 269.209 308.485 268.921 308.616Z" fill="#8976FD"/>
<path fill-rule="evenodd" clip-rule="evenodd" d="M634.919 328.547C635.516 328.547 636 328.986 636 329.527C636 330.049 635.55 330.476 634.982 330.506L634.919 330.507H45.0813C44.4841 330.507 44 330.069 44 329.527C44 329.005 44.4502 328.578 45.0178 328.549L45.0813 328.547H634.919Z" fill="#111111"/>
<path fill-rule="evenodd" clip-rule="evenodd" d="M351.715 190.325L349.732 162.354L309.939 164.674L311.309 183.593C314.841 180.848 332.215 170.327 334.738 170.131C337.261 169.934 340.289 173.268 335.963 175.849C331.638 178.43 322.483 182.678 322.483 182.678C330.088 180.26 339.712 177.646 341.514 178.071C344.254 178.724 344.073 183.299 338.847 184.802L324.177 189.54C324.177 189.54 341.262 185.652 343.569 185.815C345.876 185.979 347.894 191.403 337.153 193.233C326.411 195.095 325.979 195.945 325.979 195.945C325.979 195.945 339.207 194.246 341.947 194.475C344.686 194.703 344.758 201.173 331.602 201.141L331.53 201.304L341.658 200.716C347.57 200.389 352.111 195.716 351.715 190.325Z" fill="#111111"/>
</svg>
