<!DOCTYPE svg PUBLIC "-//W3C//DTD SVG 1.1//EN" "http://www.w3.org/Graphics/SVG/1.1/DTD/svg11.dtd">
<!-- Uploaded to: SVG Repo, www.svgrepo.com, Transformed by: SVG Repo Mixer Tools -->
<svg width="64px" height="64px" viewBox="0 0 100 100" xmlns="http://www.w3.org/2000/svg" version="1.1" fill="#000000">
<g id="SVGRepo_bgCarrier" stroke-width="0"/>
<g id="SVGRepo_tracerCarrier" stroke-linecap="round" stroke-linejoin="round"/>
<g id="SVGRepo_iconCarrier"> <g style="fill:none;stroke:#7B4AE280;stroke-width:2;"> <path d="m 45 50 a 20 2 0 1 0 20 1"/> <path d="m 45 58 a 15 2 0 1 0 15 1"/> <path d="m 45 66 a 12 2 0 1 0 12 1"/> <path d="m 45 74 a 25 2 0 1 0 25 1"/> <path d="m 45 45 a 8 9 0 0 0 -1 -12 a 8 9 0 0 1 1 -12"/> <path d="m 55 47 a 7 8 0 0 0 -2 -13 a 8 9 0 0 1 2 -13"/> </g> </g>
</svg>